<svg width="60" height="60" viewBox="0 0 60 60" fill="none" xmlns="http://www.w3.org/2000/svg">
<path d="M59.9995 29.8144C59.9293 24.0622 58.2268 18.4499 55.0924 13.6385C51.9581 8.82714 47.5228 5.01708 42.3087 2.65706C37.0942 0.297035 31.3183 -0.514656 25.6608 0.317523C20.0035 1.14974 14.7003 3.59115 10.3758 7.35435C6.05122 11.1175 2.88549 16.0457 1.25138 21.5585C-0.382692 27.0713 -0.417118 32.939 1.15223 38.4709C2.72157 44.0028 5.82929 48.9679 10.1094 52.7822C14.3895 56.5966 19.6637 59.1008 25.311 60V38.606H17.8108V29.8144H25.311V23.1358C25.1373 21.583 25.3046 20.0107 25.8011 18.5299C26.2976 17.0492 27.111 15.6961 28.1839 14.5662C29.2568 13.4363 30.563 12.5571 32.0105 11.9907C33.4581 11.4243 35.0117 11.1844 36.5613 11.2881C38.8106 11.3191 41.0547 11.5209 43.274 11.8918V19.4382H39.5239C38.8773 19.3561 38.2203 19.4213 37.6023 19.629C36.9839 19.8366 36.4199 20.1814 35.9519 20.6378C35.4839 21.0942 35.1239 21.6506 34.8985 22.2657C34.6727 22.8811 34.5876 23.5396 34.6487 24.1923V29.8899H42.974L41.6239 38.6814H34.6862V59.8113C41.7736 58.6835 48.2245 55.0371 52.8686 49.5335C57.5128 44.0299 60.0426 37.034 59.9995 29.8144Z" fill="white"/>
</svg>
