<svg width="60" height="60" viewBox="0 0 60 60" fill="none" xmlns="http://www.w3.org/2000/svg">
<g clip-path="url(#clip0_75_140)">
<path d="M32.0306 0.0605469C47.2539 0.0605469 59.7093 12.516 59.7093 27.7393V32.0638C59.7093 47.2871 47.2539 59.7425 32.0306 59.7425H27.7061C12.4828 59.7425 0.0273438 47.2871 0.0273438 32.0638V27.7393C0.0273438 12.516 12.4828 0.0605469 27.7061 0.0605469H32.0306ZM30.4124 15.061L30.0273 15.0605C26.8207 15.0605 23.614 15.1665 23.614 15.1665C18.9303 15.1665 15.1333 18.9634 15.1333 23.6471C15.1333 23.6471 15.036 26.4006 15.0279 29.3561L15.0273 29.7425C15.0273 33.0517 15.1333 36.474 15.1333 36.474C15.1333 41.1576 18.9303 44.9546 23.614 44.9546C23.614 44.9546 26.6121 45.0606 29.7094 45.0606C33.0185 45.0606 36.5468 44.9546 36.5468 44.9546C41.2305 44.9546 44.9214 41.2637 44.9214 36.58C44.9214 36.58 45.0273 33.1962 45.0273 29.9546L45.0254 29.1938C45.0111 26.2854 44.9213 23.5411 44.9213 23.5411C44.9213 18.8574 41.2304 15.1665 36.5467 15.1665C36.5467 15.1665 33.4938 15.0689 30.4124 15.061ZM30.0273 17.7605C32.6569 17.7605 36.0284 17.8474 36.0284 17.8474C39.8691 17.8474 42.2404 20.2188 42.2404 24.0594C42.2404 24.0594 42.3273 27.3733 42.3273 29.9735C42.3273 32.6317 42.2404 36.0615 42.2404 36.0615C42.2404 39.9021 39.8691 42.2735 36.0284 42.2735C36.0284 42.2735 33.0468 42.3465 30.4598 42.3587L29.7666 42.3604C27.2268 42.3604 24.1323 42.2735 24.1323 42.2735C20.2917 42.2735 17.8143 39.796 17.8143 35.9555C17.8143 35.9555 17.7273 32.5132 17.7273 29.7997C17.7273 27.26 17.8143 24.0594 17.8143 24.0594C17.8143 20.2188 20.2917 17.8474 24.1323 17.8474C24.1323 17.8474 27.3978 17.7605 30.0273 17.7605ZM30.0273 22.3766C25.7836 22.3766 22.3434 25.8168 22.3434 30.0604C22.3434 34.3041 25.7836 37.7443 30.0273 37.7443C34.271 37.7443 37.7111 34.3041 37.7111 30.0604C37.7111 25.8168 34.271 22.3766 30.0273 22.3766ZM30.0273 25.0604C32.7887 25.0604 35.0273 27.299 35.0273 30.0604C35.0273 32.8219 32.7887 35.0605 30.0273 35.0605C27.2659 35.0605 25.0273 32.8219 25.0273 30.0604C25.0273 27.299 27.2658 25.0604 30.0273 25.0604ZM38.0788 20.2443C37.0534 20.2443 36.2221 21.0797 36.2221 22.1101C36.2221 23.1406 37.0534 23.9759 38.0788 23.9759C39.1041 23.9759 39.9353 23.1406 39.9353 22.1101C39.9353 21.0796 39.1041 20.2443 38.0788 20.2443Z" fill="white"/>
</g>
<defs>
<clipPath id="clip0_75_140">
<rect width="60" height="60" fill="white"/>
</clipPath>
</defs>
</svg>
